<?xml version="1.0" encoding="utf-8"?>
<!-- Generator: Adobe Illustrator 17.0.0, SVG Export Plug-In . SVG Version: 6.00 Build 0)  -->
<svg version="1.2" baseProfile="tiny" id="图层_1"
	 xmlns="http://www.w3.org/2000/svg" xmlns:xlink="http://www.w3.org/1999/xlink" x="0px" y="0px" width="264px" height="60px"
	 viewBox="0 0 264 60" xml:space="preserve">
<path d="M218.939,7.096H264V0h-52.157v35.126c0,6.742,2.306,12.596,7.274,17.564c4.79,4.789,10.644,7.273,17.563,7.273H264v-7.096
	h-27.32c-4.968,0-9.048-1.774-12.596-5.322c-3.371-3.371-5.144-7.628-5.144-12.418V7.096z"/>
<path d="M0,14.33v20.877c0,6.9,2.3,12.738,7.254,17.515c4.777,4.953,10.615,7.254,17.515,7.254h56.439v-20.7
	c0-6.9-2.477-12.738-7.254-17.515c-4.777-4.953-10.792-7.431-17.515-7.431h-1.416V7.077h26.185V0H0v7.077h23.885v7.253H0z
	 M30.962,14.33V7.077h16.985v7.253H30.962z M7.077,35.208V21.407h16.808v20.701h7.077V21.407h16.985v20.701h7.077V21.407h1.416
	c4.777,0,9.023,1.769,12.561,5.308c3.362,3.538,5.131,7.608,5.131,12.562V52.9H24.769c-4.953,0-9.023-1.769-12.561-5.131
	C8.846,44.231,7.077,40.161,7.077,35.208z"/>
<path fill="#CD0F19" d="M107.263,0.006h-9.212c8.149,9.39,8.858,18.424,2.126,27.105c-8.503,10.274-9.389,21.258-2.126,32.773h8.503
	c-7.44-10.098-7.795-19.487-0.886-28.344l0,0C114.172,21.264,114.704,10.812,107.263,0.006z"/>
<path d="M136.07,10.427c-1.59-3.533-2.296-6.889-1.766-10.421h-7.772c-0.353,3.533,0.177,6.888,1.413,10.421h-8.832v7.065h23.316
	V28.09h-19.606c-0.354,0-0.707,0-1.06,0v7.065c0.353,0,0.706,0,1.06,0h19.606v10.598h-22.256c-0.354,0-0.707,0-1.06,0v7.065
	c0.353,0,0.706,0,1.06,0h22.256v7.065h7.065v-7.065h23.315v-7.065h-23.315V35.156h20.665V28.09h-20.665V17.492h23.315v-7.065h-8.831
	c1.414-3.533,1.943-6.889,1.589-10.421h-7.772c0.53,3.533-0.177,6.888-1.943,10.421H136.07z"/>
<path fill="#CD0F19" d="M191.804,27.149c-8.515,10.289-9.402,21.288-2.129,32.82h8.516c-7.451-10.112-7.806-19.514-0.887-28.384l0,0
	c8.515-10.29,9.048-20.757,1.596-31.578h-9.225C197.836,9.409,198.545,18.456,191.804,27.149z"/>
</svg>
